<?xml version="1.0" standalone="no"?>
<!DOCTYPE svg PUBLIC "-//W3C//DTD SVG 20010904//EN"
 "http://www.w3.org/TR/2001/REC-SVG-20010904/DTD/svg10.dtd">
<svg version="1.0" xmlns="http://www.w3.org/2000/svg"
 width="170.000000pt" height="170.000000pt" viewBox="0 0 170.000000 170.000000"
 preserveAspectRatio="xMidYMid meet">

<g transform="translate(0.000000,170.000000) scale(0.100000,-0.100000)"
fill="#000000" stroke="none">
<path d="M440 1390 c-19 -19 -20 -33 -20 -395 0 -372 0 -374 22 -395 12 -11
32 -20 43 -20 12 0 85 36 161 80 76 44 142 80 147 80 4 0 7 -51 7 -113 0 -96
3 -116 18 -129 26 -22 357 -208 371 -208 14 0 91 43 91 51 0 3 -19 15 -43 27
-23 12 -107 60 -187 107 l-145 84 -3 123 -2 123 190 109 c104 59 187 112 184
117 -3 5 -23 18 -45 29 -45 24 -35 27 -219 -79 l-105 -61 -3 129 c-3 146 1
138 -97 194 -323 185 -326 186 -365 147z m292 -218 l68 -37 0 -137 0 -137 -67
-39 c-38 -22 -101 -58 -140 -80 l-73 -41 0 295 0 295 73 -41 c39 -22 102 -57
139 -78z"/>
</g>
</svg>
